<?xml version="1.0"?><svg xmlns="http://www.w3.org/2000/svg"><line x1="0.0" y1="50.0" x2="0.617283950617284" y2="50.0" stroke="black" stroke-width="1"/><line x1="1.234567901234568" y1="50.0" x2="1.851851851851852" y2="50.0" stroke="black" stroke-width="1"/><line x1="0.617283950617284" y1="50.0" x2="0.925925925925926" y2="49.46541641741701" stroke="black" stroke-width="1"/><line x1="1.234567901234568" y1="50.0" x2="0.9259259259259258" y2="49.46541641741701" stroke="black" stroke-width="1"/><line x1="3.703703703703704" y1="50.0" x2="4.320987654320988" y2="50.0" stroke="black" stroke-width="1"/><line x1="4.938271604938272" y1="50.0" x2="5.555555555555556" y2="50.0" stroke="black" stroke-width="1"/><line x1="4.320987654320988" y1="50.0" x2="4.629629629629631" y2="49.46541641741701" stroke="black" stroke-width="1"/><line x1="4.938271604938272" y1="50.0" x2="4.62962962962963" y2="49.46541641741701" stroke="black" stroke-width="1"/><line x1="1.851851851851852" y1="50.0" x2="2.160493827160494" y2="49.46541641741701" stroke="black" stroke-width="1"/><line x1="2.469135802469136" y1="48.93083283483403" x2="2.777777777777778" y2="48.39624925225104" stroke="black" stroke-width="1"/><line x1="2.160493827160494" y1="49.46541641741701" x2="1.8518518518518519" y2="48.93083283483402" stroke="black" stroke-width="1"/><line x1="2.469135802469136" y1="48.93083283483403" x2="1.851851851851852" y2="48.93083283483403" stroke="black" stroke-width="1"/><line x1="3.703703703703704" y1="50.0" x2="3.3950617283950617" y2="49.46541641741701" stroke="black" stroke-width="1"/><line x1="3.0864197530864197" y1="48.93083283483403" x2="2.7777777777777772" y2="48.39624925225104" stroke="black" stroke-width="1"/><line x1="3.3950617283950617" y1="49.46541641741701" x2="3.7037037037037037" y2="48.93083283483402" stroke="black" stroke-width="1"/><line x1="3.0864197530864197" y1="48.93083283483403" x2="3.7037037037037037" y2="48.93083283483403" stroke="black" stroke-width="1"/><line x1="11.111111111111112" y1="50.0" x2="11.728395061728396" y2="50.0" stroke="black" stroke-width="1"/><line x1="12.34567901234568" y1="50.0" x2="12.962962962962965" y2="50.0" stroke="black" stroke-width="1"/><line x1="11.728395061728396" y1="50.0" x2="12.037037037037038" y2="49.46541641741701" stroke="black" stroke-width="1"/><line x1="12.34567901234568" y1="50.0" x2="12.037037037037038" y2="49.46541641741701" stroke="black" stroke-width="1"/><line x1="14.814814814814817" y1="50.0" x2="15.432098765432102" y2="50.0" stroke="black" stroke-width="1"/><line x1="16.049382716049386" y1="50.0" x2="16.66666666666667" y2="50.0" stroke="black" stroke-width="1"/><line x1="15.432098765432102" y1="50.0" x2="15.740740740740744" y2="49.46541641741701" stroke="black" stroke-width="1"/><line x1="16.049382716049386" y1="50.0" x2="15.740740740740744" y2="49.46541641741701" stroke="black" stroke-width="1"/><line x1="12.962962962962965" y1="50.0" x2="13.271604938271608" y2="49.46541641741701" stroke="black" stroke-width="1"/><line x1="13.58024691358025" y1="48.93083283483403" x2="13.888888888888893" y2="48.39624925225104" stroke="black" stroke-width="1"/><line x1="13.271604938271608" y1="49.46541641741701" x2="12.962962962962965" y2="48.93083283483402" stroke="black" stroke-width="1"/><line x1="13.58024691358025" y1="48.93083283483403" x2="12.962962962962965" y2="48.93083283483403" stroke="black" stroke-width="1"/><line x1="14.814814814814817" y1="50.0" x2="14.506172839506174" y2="49.46541641741701" stroke="black" stroke-width="1"/><line x1="14.197530864197532" y1="48.93083283483403" x2="13.88888888888889" y2="48.39624925225104" stroke="black" stroke-width="1"/><line x1="14.506172839506174" y1="49.46541641741701" x2="14.814814814814817" y2="48.93083283483402" stroke="black" stroke-width="1"/><line x1="14.197530864197532" y1="48.93083283483403" x2="14.814814814814817" y2="48.93083283483403" stroke="black" stroke-width="1"/><line x1="5.555555555555556" y1="50.0" x2="5.864197530864199" y2="49.46541641741701" stroke="black" stroke-width="1"/><line x1="6.17283950617284" y1="48.93083283483403" x2="6.481481481481483" y2="48.39624925225104" stroke="black" stroke-width="1"/><line x1="5.864197530864199" y1="49.46541641741701" x2="5.555555555555556" y2="48.93083283483402" stroke="black" stroke-width="1"/><line x1="6.17283950617284" y1="48.93083283483403" x2="5.555555555555556" y2="48.93083283483403" stroke="black" stroke-width="1"/><line x1="7.407407407407408" y1="46.79249850450208" x2="7.716049382716051" y2="46.25791492191909" stroke="black" stroke-width="1"/><line x1="8.024691358024693" y1="45.723331339336106" x2="8.333333333333336" y2="45.188747756753116" stroke="black" stroke-width="1"/><line x1="7.716049382716051" y1="46.25791492191909" x2="7.407407407407408" y2="45.7233313393361" stroke="black" stroke-width="1"/><line x1="8.024691358024693" y1="45.723331339336106" x2="7.407407407407409" y2="45.723331339336106" stroke="black" stroke-width="1"/><line x1="6.481481481481483" y1="48.39624925225104" x2="6.17283950617284" y2="47.86166566966805" stroke="black" stroke-width="1"/><line x1="5.864197530864198" y1="47.32708208708507" x2="5.555555555555555" y2="46.79249850450208" stroke="black" stroke-width="1"/><line x1="6.17283950617284" y1="47.86166566966805" x2="5.555555555555556" y2="47.86166566966805" stroke="black" stroke-width="1"/><line x1="5.864197530864198" y1="47.32708208708507" x2="5.555555555555556" y2="47.86166566966806" stroke="black" stroke-width="1"/><line x1="7.407407407407408" y1="46.79249850450208" x2="6.790123456790124" y2="46.79249850450208" stroke="black" stroke-width="1"/><line x1="6.17283950617284" y1="46.79249850450208" x2="5.555555555555556" y2="46.79249850450208" stroke="black" stroke-width="1"/><line x1="6.790123456790124" y1="46.79249850450208" x2="6.481481481481482" y2="46.25791492191909" stroke="black" stroke-width="1"/><line x1="6.17283950617284" y1="46.79249850450208" x2="6.481481481481483" y2="46.25791492191909" stroke="black" stroke-width="1"/><line x1="11.111111111111112" y1="50.0" x2="10.80246913580247" y2="49.46541641741701" stroke="black" stroke-width="1"/><line x1="10.493827160493828" y1="48.93083283483403" x2="10.185185185185185" y2="48.39624925225104" stroke="black" stroke-width="1"/><line x1="10.80246913580247" y1="49.46541641741701" x2="11.111111111111112" y2="48.93083283483402" stroke="black" stroke-width="1"/><line x1="10.493827160493828" y1="48.93083283483403" x2="11.11111111111111" y2="48.93083283483403" stroke="black" stroke-width="1"/><line x1="9.25925925925926" y1="46.79249850450208" x2="8.950617283950617" y2="46.25791492191909" stroke="black" stroke-width="1"/><line x1="8.641975308641975" y1="45.723331339336106" x2="8.333333333333332" y2="45.188747756753116" stroke="black" stroke-width="1"/><line x1="8.950617283950617" y1="46.25791492191909" x2="9.25925925925926" y2="45.7233313393361" stroke="black" stroke-width="1"/><line x1="8.641975308641975" y1="45.723331339336106" x2="9.25925925925926" y2="45.723331339336106" stroke="black" stroke-width="1"/><line x1="10.185185185185185" y1="48.39624925225104" x2="10.493827160493828" y2="47.86166566966805" stroke="black" stroke-width="1"/><line x1="10.80246913580247" y1="47.32708208708507" x2="11.111111111111112" y2="46.79249850450208" stroke="black" stroke-width="1"/><line x1="10.493827160493828" y1="47.86166566966805" x2="11.11111111111111" y2="47.86166566966805" stroke="black" stroke-width="1"/><line x1="10.80246913580247" y1="47.32708208708507" x2="11.111111111111112" y2="47.86166566966806" stroke="black" stroke-width="1"/><line x1="9.25925925925926" y1="46.79249850450208" x2="9.876543209876544" y2="46.79249850450208" stroke="black" stroke-width="1"/><line x1="10.493827160493828" y1="46.79249850450208" x2="11.11111111111111" y2="46.79249850450208" stroke="black" stroke-width="1"/><line x1="9.876543209876544" y1="46.79249850450208" x2="10.185185185185187" y2="46.25791492191909" stroke="black" stroke-width="1"/><line x1="10.493827160493828" y1="46.79249850450208" x2="10.185185185185185" y2="46.25791492191909" stroke="black" stroke-width="1"/><line x1="33.333333333333336" y1="50.0" x2="33.95061728395062" y2="50.0" stroke="black" stroke-width="1"/><line x1="34.567901234567906" y1="50.0" x2="35.18518518518519" y2="50.0" stroke="black" stroke-width="1"/><line x1="33.95061728395062" y1="50.0" x2="34.25925925925926" y2="49.46541641741701" stroke="black" stroke-width="1"/><line x1="34.567901234567906" y1="50.0" x2="34.25925925925927" y2="49.46541641741701" stroke="black" stroke-width="1"/><line x1="37.03703703703704" y1="50.0" x2="37.65432098765432" y2="50.0" stroke="black" stroke-width="1"/><line x1="38.27160493827161" y1="50.0" x2="38.88888888888889" y2="50.0" stroke="black" stroke-width="1"/><line x1="37.65432098765432" y1="50.0" x2="37.96296296296296" y2="49.46541641741701" stroke="black" stroke-width="1"/><line x1="38.27160493827161" y1="50.0" x2="37.96296296296297" y2="49.46541641741701" stroke="black" stroke-width="1"/><line x1="35.18518518518519" y1="50.0" x2="35.49382716049383" y2="49.46541641741701" stroke="black" stroke-width="1"/><line x1="35.802469135802475" y1="48.93083283483403" x2="36.111111111111114" y2="48.39624925225104" stroke="black" stroke-width="1"/><line x1="35.49382716049383" y1="49.46541641741701" x2="35.18518518518519" y2="48.93083283483402" stroke="black" stroke-width="1"/><line x1="35.802469135802475" y1="48.93083283483403" x2="35.18518518518519" y2="48.93083283483403" stroke="black" stroke-width="1"/><line x1="37.03703703703704" y1="50.0" x2="36.7283950617284" y2="49.46541641741701" stroke="black" stroke-width="1"/><line x1="36.41975308641975" y1="48.93083283483403" x2="36.111111111111114" y2="48.39624925225104" stroke="black" stroke-width="1"/><line x1="36.7283950617284" y1="49.46541641741701" x2="37.03703703703704" y2="48.93083283483402" stroke="black" stroke-width="1"/><line x1="36.41975308641975" y1="48.93083283483403" x2="37.03703703703704" y2="48.93083283483403" stroke="black" stroke-width="1"/><line x1="44.44444444444445" y1="50.0" x2="45.061728395061735" y2="50.0" stroke="black" stroke-width="1"/><line x1="45.67901234567902" y1="50.0" x2="46.296296296296305" y2="50.0" stroke="black" stroke-width="1"/><line x1="45.061728395061735" y1="50.0" x2="45.370370370370374" y2="49.46541641741701" stroke="black" stroke-width="1"/><line x1="45.67901234567902" y1="50.0" x2="45.37037037037038" y2="49.46541641741701" stroke="black" stroke-width="1"/><line x1="48.14814814814815" y1="50.0" x2="48.76543209876544" y2="50.0" stroke="black" stroke-width="1"/><line x1="49.38271604938272" y1="50.0" x2="50.00000000000001" y2="50.0" stroke="black" stroke-width="1"/><line x1="48.76543209876544" y1="50.0" x2="49.074074074074076" y2="49.46541641741701" stroke="black" stroke-width="1"/><line x1="49.38271604938272" y1="50.0" x2="49.07407407407408" y2="49.46541641741701" stroke="black" stroke-width="1"/><line x1="46.296296296296305" y1="50.0" x2="46.604938271604944" y2="49.46541641741701" stroke="black" stroke-width="1"/><line x1="46.91358024691359" y1="48.93083283483403" x2="47.22222222222223" y2="48.39624925225104" stroke="black" stroke-width="1"/><line x1="46.604938271604944" y1="49.46541641741701" x2="46.296296296296305" y2="48.93083283483402" stroke="black" stroke-width="1"/><line x1="46.91358024691359" y1="48.93083283483403" x2="46.296296296296305" y2="48.93083283483403" stroke="black" stroke-width="1"/><line x1="48.14814814814815" y1="50.0" x2="47.83950617283951" y2="49.46541641741701" stroke="black" stroke-width="1"/><line x1="47.53086419753087" y1="48.93083283483403" x2="47.22222222222223" y2="48.39624925225104" stroke="black" stroke-width="1"/><line x1="47.83950617283951" y1="49.46541641741701" x2="48.14814814814815" y2="48.93083283483402" stroke="black" stroke-width="1"/><line x1="47.53086419753087" y1="48.93083283483403" x2="48.14814814814815" y2="48.93083283483403" stroke="black" stroke-width="1"/><line x1="38.88888888888889" y1="50.0" x2="39.19753086419753" y2="49.46541641741701" stroke="black" stroke-width="1"/><line x1="39.50617283950618" y1="48.93083283483403" x2="39.81481481481482" y2="48.39624925225104" stroke="black" stroke-width="1"/><line x1="39.19753086419753" y1="49.46541641741701" x2="38.88888888888889" y2="48.93083283483402" stroke="black" stroke-width="1"/><line x1="39.50617283950618" y1="48.93083283483403" x2="38.88888888888889" y2="48.93083283483403" stroke="black" stroke-width="1"/><line x1="40.74074074074075" y1="46.79249850450208" x2="41.04938271604939" y2="46.25791492191909" stroke="black" stroke-width="1"/><line x1="41.35802469135803" y1="45.723331339336106" x2="41.66666666666667" y2="45.188747756753116" stroke="black" stroke-width="1"/><line x1="41.04938271604939" y1="46.25791492191909" x2="40.74074074074075" y2="45.7233313393361" stroke="black" stroke-width="1"/><line x1="41.35802469135803" y1="45.723331339336106" x2="40.74074074074075" y2="45.723331339336106" stroke="black" stroke-width="1"/><line x1="39.81481481481482" y1="48.39624925225104" x2="39.50617283950618" y2="47.86166566966805" stroke="black" stroke-width="1"/><line x1="39.19753086419753" y1="47.32708208708507" x2="38.88888888888889" y2="46.79249850450208" stroke="black" stroke-width="1"/><line x1="39.50617283950618" y1="47.86166566966805" x2="38.88888888888889" y2="47.86166566966805" stroke="black" stroke-width="1"/><line x1="39.19753086419753" y1="47.32708208708507" x2="38.88888888888889" y2="47.86166566966806" stroke="black" stroke-width="1"/><line x1="40.74074074074075" y1="46.79249850450208" x2="40.12345679012346" y2="46.79249850450208" stroke="black" stroke-width="1"/><line x1="39.50617283950618" y1="46.79249850450208" x2="38.88888888888889" y2="46.79249850450208" stroke="black" stroke-width="1"/><line x1="40.12345679012346" y1="46.79249850450208" x2="39.814814814814824" y2="46.25791492191909" stroke="black" stroke-width="1"/><line x1="39.50617283950618" y1="46.79249850450208" x2="39.81481481481482" y2="46.25791492191909" stroke="black" stroke-width="1"/><line x1="44.44444444444445" y1="50.0" x2="44.13580246913581" y2="49.46541641741701" stroke="black" stroke-width="1"/><line x1="43.827160493827165" y1="48.93083283483403" x2="43.518518518518526" y2="48.39624925225104" stroke="black" stroke-width="1"/><line x1="44.13580246913581" y1="49.46541641741701" x2="44.44444444444445" y2="48.93083283483402" stroke="black" stroke-width="1"/><line x1="43.827160493827165" y1="48.93083283483403" x2="44.44444444444445" y2="48.93083283483403" stroke="black" stroke-width="1"/><line x1="42.592592592592595" y1="46.79249850450208" x2="42.283950617283956" y2="46.25791492191909" stroke="black" stroke-width="1"/><line x1="41.97530864197531" y1="45.723331339336106" x2="41.66666666666667" y2="45.188747756753116" stroke="black" stroke-width="1"/><line x1="42.283950617283956" y1="46.25791492191909" x2="42.592592592592595" y2="45.7233313393361" stroke="black" stroke-width="1"/><line x1="41.97530864197531" y1="45.723331339336106" x2="42.592592592592595" y2="45.723331339336106" stroke="black" stroke-width="1"/><line x1="43.518518518518526" y1="48.39624925225104" x2="43.827160493827165" y2="47.86166566966805" stroke="black" stroke-width="1"/><line x1="44.13580246913581" y1="47.32708208708507" x2="44.44444444444445" y2="46.79249850450208" stroke="black" stroke-width="1"/><line x1="43.827160493827165" y1="47.86166566966805" x2="44.44444444444445" y2="47.86166566966805" stroke="black" stroke-width="1"/><line x1="44.13580246913581" y1="47.32708208708507" x2="44.44444444444445" y2="47.86166566966806" stroke="black" stroke-width="1"/><line x1="42.592592592592595" y1="46.79249850450208" x2="43.20987654320988" y2="46.79249850450208" stroke="black" stroke-width="1"/><line x1="43.827160493827165" y1="46.79249850450208" x2="44.44444444444445" y2="46.79249850450208" stroke="black" stroke-width="1"/><line x1="43.20987654320988" y1="46.79249850450208" x2="43.51851851851852" y2="46.25791492191909" stroke="black" stroke-width="1"/><line x1="43.827160493827165" y1="46.79249850450208" x2="43.518518518518526" y2="46.25791492191909" stroke="black" stroke-width="1"/><line x1="16.666666666666668" y1="50.0" x2="16.97530864197531" y2="49.46541641741701" stroke="black" stroke-width="1"/><line x1="17.283950617283953" y1="48.93083283483403" x2="17.592592592592595" y2="48.39624925225104" stroke="black" stroke-width="1"/><line x1="16.97530864197531" y1="49.46541641741701" x2="16.666666666666668" y2="48.93083283483402" stroke="black" stroke-width="1"/><line x1="17.283950617283953" y1="48.93083283483403" x2="16.666666666666668" y2="48.93083283483403" stroke="black" stroke-width="1"/><line x1="18.51851851851852" y1="46.79249850450208" x2="18.82716049382716" y2="46.25791492191909" stroke="black" stroke-width="1"/><line x1="19.135802469135804" y1="45.723331339336106" x2="19.444444444444446" y2="45.188747756753116" stroke="black" stroke-width="1"/><line x1="18.82716049382716" y1="46.25791492191909" x2="18.51851851851852" y2="45.7233313393361" stroke="black" stroke-width="1"/><line x1="19.135802469135804" y1="45.723331339336106" x2="18.51851851851852" y2="45.723331339336106" stroke="black" stroke-width="1"/><line x1="17.592592592592595" y1="48.39624925225104" x2="17.283950617283953" y2="47.86166566966805" stroke="black" stroke-width="1"/><line x1="16.97530864197531" y1="47.32708208708507" x2="16.666666666666668" y2="46.79249850450208" stroke="black" stroke-width="1"/><line x1="17.283950617283953" y1="47.86166566966805" x2="16.666666666666668" y2="47.86166566966805" stroke="black" stroke-width="1"/><line x1="16.97530864197531" y1="47.32708208708507" x2="16.666666666666668" y2="47.86166566966806" stroke="black" stroke-width="1"/><line x1="18.51851851851852" y1="46.79249850450208" x2="17.901234567901234" y2="46.79249850450208" stroke="black" stroke-width="1"/><line x1="17.28395061728395" y1="46.79249850450208" x2="16.666666666666664" y2="46.79249850450208" stroke="black" stroke-width="1"/><line x1="17.901234567901234" y1="46.79249850450208" x2="17.59259259259259" y2="46.25791492191909" stroke="black" stroke-width="1"/><line x1="17.28395061728395" y1="46.79249850450208" x2="17.59259259259259" y2="46.25791492191909" stroke="black" stroke-width="1"/><line x1="22.222222222222225" y1="40.37749551350624" x2="22.530864197530867" y2="39.84291193092325" stroke="black" stroke-width="1"/><line x1="22.83950617283951" y1="39.30832834834027" x2="23.148148148148152" y2="38.77374476575728" stroke="black" stroke-width="1"/><line x1="22.530864197530867" y1="39.84291193092325" x2="22.222222222222225" y2="39.30832834834026" stroke="black" stroke-width="1"/><line x1="22.83950617283951" y1="39.30832834834027" x2="22.222222222222225" y2="39.30832834834027" stroke="black" stroke-width="1"/><line x1="24.074074074074076" y1="37.16999401800832" x2="24.38271604938272" y2="36.63541043542533" stroke="black" stroke-width="1"/><line x1="24.69135802469136" y1="36.100826852842346" x2="25.000000000000004" y2="35.566243270259356" stroke="black" stroke-width="1"/><line x1="24.38271604938272" y1="36.63541043542533" x2="24.074074074074076" y2="36.10082685284234" stroke="black" stroke-width="1"/><line x1="24.69135802469136" y1="36.100826852842346" x2="24.074074074074076" y2="36.100826852842346" stroke="black" stroke-width="1"/><line x1="23.148148148148152" y1="38.77374476575728" x2="22.83950617283951" y2="38.23916118317429" stroke="black" stroke-width="1"/><line x1="22.530864197530867" y1="37.70457760059131" x2="22.222222222222225" y2="37.16999401800832" stroke="black" stroke-width="1"/><line x1="22.83950617283951" y1="38.23916118317429" x2="22.222222222222225" y2="38.23916118317429" stroke="black" stroke-width="1"/><line x1="22.530864197530867" y1="37.70457760059131" x2="22.222222222222225" y2="38.239161183174296" stroke="black" stroke-width="1"/><line x1="24.074074074074076" y1="37.16999401800832" x2="23.45679012345679" y2="37.16999401800832" stroke="black" stroke-width="1"/><line x1="22.839506172839506" y1="37.16999401800832" x2="22.22222222222222" y2="37.16999401800832" stroke="black" stroke-width="1"/><line x1="23.45679012345679" y1="37.16999401800832" x2="23.14814814814815" y2="36.63541043542533" stroke="black" stroke-width="1"/><line x1="22.839506172839506" y1="37.16999401800832" x2="23.14814814814815" y2="36.63541043542533" stroke="black" stroke-width="1"/><line x1="19.444444444444446" y1="45.188747756753116" x2="19.135802469135804" y2="44.65416417417013" stroke="black" stroke-width="1"/><line x1="18.82716049382716" y1="44.119580591587145" x2="18.51851851851852" y2="43.584997009004155" stroke="black" stroke-width="1"/><line x1="19.135802469135804" y1="44.65416417417013" x2="18.51851851851852" y2="44.65416417417013" stroke="black" stroke-width="1"/><line x1="18.82716049382716" y1="44.119580591587145" x2="18.51851851851852" y2="44.654164174170134" stroke="black" stroke-width="1"/><line x1="17.59259259259259" y1="41.981246261255194" x2="17.28395061728395" y2="41.446662678672205" stroke="black" stroke-width="1"/><line x1="16.975308641975307" y1="40.91207909608922" x2="16.666666666666664" y2="40.37749551350623" stroke="black" stroke-width="1"/><line x1="17.28395061728395" y1="41.446662678672205" x2="16.666666666666664" y2="41.446662678672205" stroke="black" stroke-width="1"/><line x1="16.975308641975307" y1="40.91207909608922" x2="16.666666666666664" y2="41.44666267867221" stroke="black" stroke-width="1"/><line x1="18.51851851851852" y1="43.584997009004155" x2="17.901234567901234" y2="43.584997009004155" stroke="black" stroke-width="1"/><line x1="17.28395061728395" y1="43.584997009004155" x2="16.666666666666664" y2="43.584997009004155" stroke="black" stroke-width="1"/><line x1="17.901234567901234" y1="43.584997009004155" x2="17.59259259259259" y2="44.119580591587145" stroke="black" stroke-width="1"/><line x1="17.28395061728395" y1="43.584997009004155" x2="17.59259259259259" y2="44.119580591587145" stroke="black" stroke-width="1"/><line x1="17.59259259259259" y1="41.981246261255194" x2="17.28395061728395" y2="42.51582984383818" stroke="black" stroke-width="1"/><line x1="16.975308641975307" y1="43.050413426421166" x2="16.666666666666664" y2="43.584997009004155" stroke="black" stroke-width="1"/><line x1="17.28395061728395" y1="42.51582984383818" x2="16.666666666666664" y2="42.51582984383818" stroke="black" stroke-width="1"/><line x1="16.975308641975307" y1="43.050413426421166" x2="16.666666666666664" y2="42.515829843838176" stroke="black" stroke-width="1"/><line x1="22.222222222222225" y1="40.37749551350623" x2="21.60493827160494" y2="40.37749551350623" stroke="black" stroke-width="1"/><line x1="20.98765432098766" y1="40.37749551350623" x2="20.370370370370374" y2="40.37749551350623" stroke="black" stroke-width="1"/><line x1="21.60493827160494" y1="40.37749551350623" x2="21.296296296296298" y2="39.84291193092324" stroke="black" stroke-width="1"/><line x1="20.98765432098766" y1="40.37749551350623" x2="21.2962962962963" y2="39.84291193092324" stroke="black" stroke-width="1"/><line x1="18.51851851851852" y1="40.37749551350623" x2="17.901234567901234" y2="40.37749551350623" stroke="black" stroke-width="1"/><line x1="17.28395061728395" y1="40.37749551350623" x2="16.666666666666664" y2="40.37749551350623" stroke="black" stroke-width="1"/><line x1="17.901234567901234" y1="40.37749551350623" x2="17.59259259259259" y2="39.84291193092324" stroke="black" stroke-width="1"/><line x1="17.28395061728395" y1="40.37749551350623" x2="17.59259259259259" y2="39.84291193092324" stroke="black" stroke-width="1"/><line x1="20.370370370370374" y1="40.37749551350623" x2="20.06172839506173" y2="39.84291193092324" stroke="black" stroke-width="1"/><line x1="19.75308641975309" y1="39.30832834834026" x2="19.444444444444446" y2="38.77374476575727" stroke="black" stroke-width="1"/><line x1="20.06172839506173" y1="39.84291193092324" x2="20.370370370370374" y2="39.308328348340254" stroke="black" stroke-width="1"/><line x1="19.75308641975309" y1="39.30832834834026" x2="20.370370370370374" y2="39.30832834834026" stroke="black" stroke-width="1"/><line x1="18.51851851851852" y1="40.37749551350623" x2="18.82716049382716" y2="39.84291193092324" stroke="black" stroke-width="1"/><line x1="19.135802469135804" y1="39.30832834834026" x2="19.444444444444446" y2="38.77374476575727" stroke="black" stroke-width="1"/><line x1="18.82716049382716" y1="39.84291193092324" x2="18.51851851851852" y2="39.308328348340254" stroke="black" stroke-width="1"/><line x1="19.135802469135804" y1="39.30832834834026" x2="18.51851851851852" y2="39.30832834834026" stroke="black" stroke-width="1"/><line x1="33.333333333333336" y1="50.0" x2="33.0246913580247" y2="49.46541641741701" stroke="black" stroke-width="1"/><line x1="32.71604938271605" y1="48.93083283483403" x2="32.40740740740741" y2="48.39624925225104" stroke="black" stroke-width="1"/><line x1="33.0246913580247" y1="49.46541641741701" x2="33.333333333333336" y2="48.93083283483402" stroke="black" stroke-width="1"/><line x1="32.71604938271605" y1="48.93083283483403" x2="33.333333333333336" y2="48.93083283483403" stroke="black" stroke-width="1"/><line x1="31.48148148148148" y1="46.79249850450208" x2="31.17283950617284" y2="46.25791492191909" stroke="black" stroke-width="1"/><line x1="30.864197530864196" y1="45.723331339336106" x2="30.555555555555554" y2="45.188747756753116" stroke="black" stroke-width="1"/><line x1="31.17283950617284" y1="46.25791492191909" x2="31.48148148148148" y2="45.7233313393361" stroke="black" stroke-width="1"/><line x1="30.864197530864196" y1="45.723331339336106" x2="31.48148148148148" y2="45.723331339336106" stroke="black" stroke-width="1"/><line x1="32.40740740740741" y1="48.39624925225104" x2="32.71604938271605" y2="47.86166566966805" stroke="black" stroke-width="1"/><line x1="33.0246913580247" y1="47.32708208708507" x2="33.333333333333336" y2="46.79249850450208" stroke="black" stroke-width="1"/><line x1="32.71604938271605" y1="47.86166566966805" x2="33.333333333333336" y2="47.86166566966805" stroke="black" stroke-width="1"/><line x1="33.0246913580247" y1="47.32708208708507" x2="33.333333333333336" y2="47.86166566966806" stroke="black" stroke-width="1"/><line x1="31.48148148148148" y1="46.79249850450208" x2="32.098765432098766" y2="46.79249850450208" stroke="black" stroke-width="1"/><line x1="32.71604938271605" y1="46.79249850450208" x2="33.333333333333336" y2="46.79249850450208" stroke="black" stroke-width="1"/><line x1="32.098765432098766" y1="46.79249850450208" x2="32.407407407407405" y2="46.25791492191909" stroke="black" stroke-width="1"/><line x1="32.71604938271605" y1="46.79249850450208" x2="32.40740740740741" y2="46.25791492191909" stroke="black" stroke-width="1"/><line x1="27.777777777777775" y1="40.37749551350624" x2="27.469135802469133" y2="39.84291193092325" stroke="black" stroke-width="1"/><line x1="27.16049382716049" y1="39.30832834834027" x2="26.851851851851848" y2="38.77374476575728" stroke="black" stroke-width="1"/><line x1="27.469135802469133" y1="39.84291193092325" x2="27.777777777777775" y2="39.30832834834026" stroke="black" stroke-width="1"/><line x1="27.16049382716049" y1="39.30832834834027" x2="27.777777777777775" y2="39.30832834834027" stroke="black" stroke-width="1"/><line x1="25.92592592592592" y1="37.16999401800832" x2="25.617283950617278" y2="36.63541043542533" stroke="black" stroke-width="1"/><line x1="25.308641975308635" y1="36.100826852842346" x2="24.999999999999993" y2="35.566243270259356" stroke="black" stroke-width="1"/><line x1="25.617283950617278" y1="36.63541043542533" x2="25.92592592592592" y2="36.10082685284234" stroke="black" stroke-width="1"/><line x1="25.308641975308635" y1="36.100826852842346" x2="25.92592592592592" y2="36.100826852842346" stroke="black" stroke-width="1"/><line x1="26.851851851851848" y1="38.77374476575728" x2="27.16049382716049" y2="38.23916118317429" stroke="black" stroke-width="1"/><line x1="27.469135802469133" y1="37.70457760059131" x2="27.777777777777775" y2="37.16999401800832" stroke="black" stroke-width="1"/><line x1="27.16049382716049" y1="38.23916118317429" x2="27.777777777777775" y2="38.23916118317429" stroke="black" stroke-width="1"/><line x1="27.469135802469133" y1="37.70457760059131" x2="27.777777777777775" y2="38.239161183174296" stroke="black" stroke-width="1"/><line x1="25.92592592592592" y1="37.16999401800832" x2="26.543209876543205" y2="37.16999401800832" stroke="black" stroke-width="1"/><line x1="27.160493827160487" y1="37.16999401800832" x2="27.77777777777777" y2="37.16999401800832" stroke="black" stroke-width="1"/><line x1="26.543209876543205" y1="37.16999401800832" x2="26.851851851851848" y2="36.63541043542533" stroke="black" stroke-width="1"/><line x1="27.160493827160487" y1="37.16999401800832" x2="26.851851851851844" y2="36.63541043542533" stroke="black" stroke-width="1"/><line x1="30.555555555555554" y1="45.188747756753116" x2="30.864197530864196" y2="44.65416417417013" stroke="black" stroke-width="1"/><line x1="31.17283950617284" y1="44.119580591587145" x2="31.48148148148148" y2="43.584997009004155" stroke="black" stroke-width="1"/><line x1="30.864197530864196" y1="44.65416417417013" x2="31.48148148148148" y2="44.65416417417013" stroke="black" stroke-width="1"/><line x1="31.17283950617284" y1="44.119580591587145" x2="31.48148148148148" y2="44.654164174170134" stroke="black" stroke-width="1"/><line x1="32.407407407407405" y1="41.981246261255194" x2="32.716049382716044" y2="41.446662678672205" stroke="black" stroke-width="1"/><line x1="33.02469135802469" y1="40.91207909608922" x2="33.33333333333333" y2="40.37749551350623" stroke="black" stroke-width="1"/><line x1="32.716049382716044" y1="41.446662678672205" x2="33.33333333333333" y2="41.446662678672205" stroke="black" stroke-width="1"/><line x1="33.02469135802469" y1="40.91207909608922" x2="33.33333333333333" y2="41.44666267867221" stroke="black" stroke-width="1"/><line x1="31.48148148148148" y1="43.584997009004155" x2="32.098765432098766" y2="43.584997009004155" stroke="black" stroke-width="1"/><line x1="32.71604938271605" y1="43.584997009004155" x2="33.333333333333336" y2="43.584997009004155" stroke="black" stroke-width="1"/><line x1="32.098765432098766" y1="43.584997009004155" x2="32.407407407407405" y2="44.119580591587145" stroke="black" stroke-width="1"/><line x1="32.71604938271605" y1="43.584997009004155" x2="32.40740740740741" y2="44.119580591587145" stroke="black" stroke-width="1"/><line x1="32.407407407407405" y1="41.981246261255194" x2="32.716049382716044" y2="42.51582984383818" stroke="black" stroke-width="1"/><line x1="33.02469135802469" y1="43.050413426421166" x2="33.33333333333333" y2="43.584997009004155" stroke="black" stroke-width="1"/><line x1="32.716049382716044" y1="42.51582984383818" x2="33.33333333333333" y2="42.51582984383818" stroke="black" stroke-width="1"/><line x1="33.02469135802469" y1="43.050413426421166" x2="33.33333333333333" y2="42.515829843838176" stroke="black" stroke-width="1"/><line x1="27.777777777777775" y1="40.37749551350624" x2="28.39506172839506" y2="40.37749551350624" stroke="black" stroke-width="1"/><line x1="29.01234567901234" y1="40.37749551350624" x2="29.629629629629626" y2="40.37749551350624" stroke="black" stroke-width="1"/><line x1="28.39506172839506" y1="40.37749551350624" x2="28.703703703703702" y2="39.84291193092325" stroke="black" stroke-width="1"/><line x1="29.01234567901234" y1="40.37749551350624" x2="28.7037037037037" y2="39.84291193092325" stroke="black" stroke-width="1"/><line x1="31.48148148148148" y1="40.37749551350624" x2="32.098765432098766" y2="40.37749551350624" stroke="black" stroke-width="1"/><line x1="32.71604938271605" y1="40.37749551350624" x2="33.333333333333336" y2="40.37749551350624" stroke="black" stroke-width="1"/><line x1="32.098765432098766" y1="40.37749551350624" x2="32.407407407407405" y2="39.84291193092325" stroke="black" stroke-width="1"/><line x1="32.71604938271605" y1="40.37749551350624" x2="32.40740740740741" y2="39.84291193092325" stroke="black" stroke-width="1"/><line x1="29.629629629629626" y1="40.37749551350624" x2="29.93827160493827" y2="39.84291193092325" stroke="black" stroke-width="1"/><line x1="30.24691358024691" y1="39.30832834834027" x2="30.555555555555554" y2="38.77374476575728" stroke="black" stroke-width="1"/><line x1="29.93827160493827" y1="39.84291193092325" x2="29.629629629629626" y2="39.30832834834026" stroke="black" stroke-width="1"/><line x1="30.24691358024691" y1="39.30832834834027" x2="29.629629629629626" y2="39.30832834834027" stroke="black" stroke-width="1"/><line x1="31.48148148148148" y1="40.37749551350624" x2="31.17283950617284" y2="39.84291193092325" stroke="black" stroke-width="1"/><line x1="30.864197530864196" y1="39.30832834834027" x2="30.555555555555554" y2="38.77374476575728" stroke="black" stroke-width="1"/><line x1="31.17283950617284" y1="39.84291193092325" x2="31.48148148148148" y2="39.30832834834026" stroke="black" stroke-width="1"/><line x1="30.864197530864196" y1="39.30832834834027" x2="31.48148148148148" y2="39.30832834834027" stroke="black" stroke-width="1"/></svg>